<?xml version="1.0" encoding="UTF-8"?>
<svg width="70px" height="70px" viewBox="0 0 70 70" version="1.1" xmlns="http://www.w3.org/2000/svg" xmlns:xlink="http://www.w3.org/1999/xlink">
    <!-- Generator: Sketch 58 (84663) - https://sketch.com -->
    <title>icon1</title>
    <desc>Created with Sketch.</desc>
    <g id="口罩预约" stroke="none" stroke-width="1" fill="none" fill-rule="evenodd">
        <path d="M35,0 C54.3299662,0 70,15.6700338 70,35 C70,54.3299662 54.3299662,70 35,70 C15.6700338,70 0,54.3299662 0,35 C0,15.6700338 15.6700338,0 35,0 Z M35,4 C17.8791728,4 4,17.8791728 4,35 C4,52.1208272 17.8791728,66 35,66 C52.1208272,66 66,52.1208272 66,35 C66,17.8791728 52.1208272,4 35,4 Z M35,46 C36.5976809,46 37.9036609,47.24892 37.9949073,48.8237272 L38,49 L38,53 C38,54.6568542 36.6568542,56 35,56 C33.4023191,56 32.0963391,54.75108 32.0050927,53.1762728 L32,53 L32,49 C32,47.3431458 33.3431458,46 35,46 Z M35,15 C36.6568542,15 38,16.3431458 38,18 L38,18 L38,39 C38,40.6568542 36.6568542,42 35,42 C33.3431458,42 32,40.6568542 32,39 L32,39 L32,18 C32,16.3431458 33.3431458,15 35,15 Z" id="icon1" fill="#4293F4" fill-rule="nonzero"></path>
    </g>
</svg>